<svg xmlns="http://www.w3.org/2000/svg" width="29.531" height="30" viewBox="0 0 29.531 30">
  <defs>
    <style>
      .cls-1 {
        fill: #38548f;
        fill-rule: evenodd;
      }
    </style>
  </defs>
  <path id="Facebook" class="cls-1" d="M949.557,1900.4h2.036V1898h-2.056v-0.53a2.076,2.076,0,0,1,.389-1.34,1.322,1.322,0,0,1,1.106-.49,3.4,3.4,0,0,1,1.039.14l0.1-2.51a7.014,7.014,0,0,0-1.683-.21,4.521,4.521,0,0,0-2.145.53,3.452,3.452,0,0,0-1.5,1.63,5.661,5.661,0,0,0-.509,2.4V1898h-1.329v2.4h1.329v7.91h3.22v-7.91Zm-0.785-14.4A15,15,0,1,1,934,1901,14.89,14.89,0,0,1,948.772,1886Z" transform="translate(-934 -1886)"/>
</svg>
