<svg xmlns="http://www.w3.org/2000/svg" width="29.53" height="30" viewBox="0 0 29.53 30">
  <defs>
    <style>
      .cls-1 {
        fill: #2686b9;
        fill-rule: evenodd;
      }
    </style>
  </defs>
  <path id="Linkedin" class="cls-1" d="M1031.17,1916a15,15,0,1,1,14.77-15A14.9,14.9,0,0,1,1031.17,1916Zm-4.54-7.3v-11.32h-3.48v11.32h3.48Zm-1.74-16.25a1.771,1.771,0,1,0-.03,3.54A1.772,1.772,0,1,0,1024.89,1892.45Zm4.53,16.25h3.48v-6.53a2.289,2.289,0,0,1,.14-0.88,1.858,1.858,0,0,1,1.76-1.32c1.26,0,1.76,1,1.76,2.46v6.27h3.48v-6.71c0-3.34-1.72-4.86-4-4.86a4.081,4.081,0,0,0-3.46,1.8h-0.07l-0.16-1.55h-3.02c0.04,1,.09,2.2.09,3.61v7.71Z" transform="translate(-1016.41 -1886)"/>
</svg>
