<svg xmlns="http://www.w3.org/2000/svg" width="29.81" height="30" viewBox="0 0 29.81 30">
  <defs>
    <style>
      .cls-1 {
        fill: #ef6499;
        fill-rule: evenodd;
      }
    </style>
  </defs>
  <path id="Dribbble" class="cls-1" d="M1072.2,1909.21a7.915,7.915,0,0,1-7.7-8.01,7.76,7.76,0,0,1,7.7-7.84,7.58,7.58,0,0,1,7.49,7.84A7.736,7.736,0,0,1,1072.2,1909.21Zm6.35-6.93a8.647,8.647,0,0,0-3.95-.29,30.053,30.053,0,0,1,1.28,4.81A6.591,6.591,0,0,0,1078.55,1902.28Zm-3.78,5.14a29.038,29.038,0,0,0-1.4-5.12,0.147,0.147,0,0,0-.04.02,9.068,9.068,0,0,0-5.17,4.21A5.452,5.452,0,0,0,1074.77,1907.42Zm-7.46-1.7a10.539,10.539,0,0,1,5.35-4.45,2.582,2.582,0,0,1,.26-0.08c-0.16-.39-0.34-0.77-0.53-1.15a23.51,23.51,0,0,1-6.76.96,1.477,1.477,0,0,0-.01.21A6.83,6.83,0,0,0,1067.31,1905.72Zm-1.55-5.9a23.441,23.441,0,0,0,6.08-.82,46.216,46.216,0,0,0-2.5-3.97A6.8,6.8,0,0,0,1065.76,1899.82Zm4.9-5.17a36.633,36.633,0,0,1,2.46,3.95,7.729,7.729,0,0,0,3.51-2.51,6.67,6.67,0,0,0-4.43-1.7A6.13,6.13,0,0,0,1070.66,1894.65Zm6.7,2.22a9.078,9.078,0,0,1-3.74,2.73c0.15,0.32.3,0.65,0.44,0.98,0.05,0.11.09,0.23,0.14,0.35a14.341,14.341,0,0,1,4.49.21A6.853,6.853,0,0,0,1077.36,1896.87Zm-5.27-10.87a15,15,0,1,1-14.9,15A14.954,14.954,0,0,1,1072.09,1886Z" transform="translate(-1057.19 -1886)"/>
</svg>
