<svg xmlns="http://www.w3.org/2000/svg" width="29.536" height="30" viewBox="0 0 29.536 30">
  <defs>
    <style>
      .cls-1 {
        fill: #32cdfb;
        fill-rule: evenodd;
      }
    </style>
  </defs>
  <path id="Twitter" class="cls-1" d="M989.751,1898.49s-4.782-.32-6.9-3.52a3.5,3.5,0,0,0,.949,4.47,1.991,1.991,0,0,1-1.387-.4,3.308,3.308,0,0,0,2.574,3.3,2.216,2.216,0,0,1-1.406.09,3.047,3.047,0,0,0,3.012,2.28,6.342,6.342,0,0,1-4.8,1.39,9.391,9.391,0,0,0,14.485-8.34,22.6,22.6,0,0,0,1.672-1.7c0.031-.16-1.308.48-1.825,0.45a3.977,3.977,0,0,0,1.369-1.82s-1.886.91-2.129,0.73a3.423,3.423,0,0,0-3.772-.73A3.327,3.327,0,0,0,989.751,1898.49ZM990.1,1886a15,15,0,1,1-14.773,15A14.894,14.894,0,0,1,990.1,1886Z" transform="translate(-975.344 -1886)"/>
</svg>
